<svg xmlns="http://www.w3.org/2000/svg" width="20" height="20" viewBox="0 0 20 20" fill="none">
<path d="M16.7778 2.22222C17.3301 2.22222 17.7778 2.66994 17.7778 3.22222V3.44444C17.7778 3.99673 17.3301 4.44444 16.7778 4.44444H14.3333C13.781 4.44444 13.3333 3.99673 13.3333 3.44444V3.22222C13.3333 2.66994 13.781 2.22222 14.3333 2.22222H16.7778ZM5.66667 2.22222C6.21895 2.22222 6.66667 2.66994 6.66667 3.22222V7.88889C6.66667 8.44117 6.21895 8.88889 5.66667 8.88889H3.22222C2.66994 8.88889 2.22222 8.44117 2.22222 7.88889V3.22222C2.22222 2.66994 2.66994 2.22222 3.22222 2.22222H5.66667ZM16.7778 11.1111C17.3301 11.1111 17.7778 11.5588 17.7778 12.1111V16.7778C17.7778 17.3301 17.3301 17.7778 16.7778 17.7778H14.3333C13.781 17.7778 13.3333 17.3301 13.3333 16.7778V12.1111C13.3333 11.5588 13.781 11.1111 14.3333 11.1111H16.7778ZM5.66667 15.5556C6.21895 15.5556 6.66667 16.0033 6.66667 16.5556V16.7778C6.66667 17.3301 6.21895 17.7778 5.66667 17.7778H3.22222C2.66994 17.7778 2.22222 17.3301 2.22222 16.7778V16.5556C2.22222 16.0033 2.66994 15.5556 3.22222 15.5556H5.66667ZM20 0.999999C20 0.447714 19.5523 0 19 0H12.1111C11.5588 0 11.1111 0.447715 11.1111 1V5.66667C11.1111 6.21895 11.5588 6.66667 12.1111 6.66667H19C19.5523 6.66667 20 6.21895 20 5.66667V0.999999ZM8.88889 1C8.88889 0.447715 8.44117 0 7.88889 0H1C0.447716 0 0 0.447715 0 1V10.1111C0 10.6634 0.447715 11.1111 1 11.1111H7.88889C8.44117 11.1111 8.88889 10.6634 8.88889 10.1111V1ZM20 9.88889C20 9.3366 19.5523 8.88889 19 8.88889H12.1111C11.5588 8.88889 11.1111 9.3366 11.1111 9.88889V19C11.1111 19.5523 11.5588 20 12.1111 20H19C19.5523 20 20 19.5523 20 19V9.88889ZM8.88889 14.3333C8.88889 13.781 8.44117 13.3333 7.88889 13.3333H1C0.447716 13.3333 0 13.781 0 14.3333V19C0 19.5523 0.447715 20 1 20H7.88889C8.44117 20 8.88889 19.5523 8.88889 19V14.3333Z" fill="#215273"/>
</svg>