<svg width="41" height="57" viewBox="0 0 41 57" fill="none" xmlns="http://www.w3.org/2000/svg">
<g id="Group 504">
<path id="Union" fill-rule="evenodd" clip-rule="evenodd" d="M0 20.2188C0 9.04067 9.06815 0 20.2802 0C31.4923 0 40.5604 9.04067 40.5604 20.2188C40.5604 32.3181 27.6492 49.0147 22.4304 55.2693C21.2942 56.6311 19.2663 56.6311 18.13 55.2693C12.9112 49.0147 0 32.3181 0 20.2188Z" fill="#215273"/>
<path id="Vector" d="M24.8416 25.996C25.7631 25.996 26.574 25.5004 26.9917 24.7511L31.3903 16.9072C31.8449 16.1095 31.2551 15.1184 30.3214 15.1184H12.7679C12.3826 15.1184 12.0317 14.8971 11.8656 14.5495L11.2543 13.2701C11.0882 12.9225 10.7372 12.7012 10.352 12.7012H7.96478C7.4125 12.7012 6.96478 13.1489 6.96478 13.7012V14.1184C6.96478 14.6707 7.4125 15.1184 7.96478 15.1184H8.79407C9.17803 15.1184 9.52807 15.3382 9.69483 15.6841L13.6186 23.8219C13.7606 24.1164 13.7497 24.4616 13.5895 24.7465L12.1865 27.2409C11.2896 28.8604 12.4691 30.8305 14.3367 30.8305H28.0804C28.6327 30.8305 29.0804 30.3827 29.0804 29.8305V29.4132C29.0804 28.8609 28.6327 28.4132 28.0804 28.4132H16.0415C15.2778 28.4132 14.7959 27.5918 15.1686 26.9252L15.4019 26.508C15.5787 26.1918 15.9126 25.996 16.2748 25.996H24.8416ZM13.9956 18.9697C13.6757 18.3058 14.1595 17.5356 14.8965 17.5356H26.5248C27.2892 17.5356 27.771 18.3584 27.3969 19.025L25.1281 23.0681C24.9512 23.3835 24.6177 23.5787 24.2561 23.5787H16.8447C16.4606 23.5787 16.1105 23.3588 15.9438 23.0128L13.9956 18.9697ZM14.3367 32.0391C12.9852 32.0391 11.8917 33.1268 11.8917 34.4563C11.8917 35.7858 12.9852 36.8736 14.3367 36.8736C15.6882 36.8736 16.794 35.7858 16.794 34.4563C16.794 33.1268 15.6882 32.0391 14.3367 32.0391ZM26.6231 32.0391C25.2716 32.0391 24.1781 33.1268 24.1781 34.4563C24.1781 35.7858 25.2716 36.8736 26.6231 36.8736C27.9747 36.8736 29.0804 35.7858 29.0804 34.4563C29.0804 33.1268 27.9747 32.0391 26.6231 32.0391Z" fill="#24CE7B"/>
</g>
</svg>
