<svg xmlns="http://www.w3.org/2000/svg" width="31" height="23" viewBox="0 0 31 23" fill="none">
  <rect width="31" height="23" rx="3" fill="#215273"/>
  <path d="M6 17C6 17.5523 6.44772 18 7 18H25C25.5523 18 26 17.5523 26 17V16.8333C26 16.281 25.5523 15.8333 25 15.8333H7C6.44772 15.8333 6 16.281 6 16.8333V17ZM6 11.5833C6 12.1356 6.44772 12.5833 7 12.5833H25C25.5523 12.5833 26 12.1356 26 11.5833V11.4167C26 10.8644 25.5523 10.4167 25 10.4167H7C6.44772 10.4167 6 10.8644 6 11.4167V11.5833ZM7 5C6.44772 5 6 5.44772 6 6V6.16667C6 6.71895 6.44772 7.16667 7 7.16667H25C25.5523 7.16667 26 6.71895 26 6.16667V6C26 5.44771 25.5523 5 25 5H7Z" fill="white"/>
</svg>