<svg xmlns="http://www.w3.org/2000/svg" width="69" height="69" viewBox="0 0 69 69" fill="none">
  <circle cx="34.5" cy="34.5" r="34.5" fill="white"/>
  <path fill-rule="evenodd" clip-rule="evenodd" d="M17 30.007C17 20.6045 24.6277 13 34.0587 13C43.4897 13 51.1173 20.6045 51.1173 30.007C51.1173 39.9299 40.7934 53.5288 36.2085 59.0788C35.0789 60.4462 33.0385 60.4462 31.9089 59.0788C27.324 53.5288 17 39.9299 17 30.007Z" fill="#215273"/>
  <path d="M37.8955 34.8665C38.6706 34.8665 39.3527 34.4497 39.704 33.8194L43.4039 27.2215C43.7863 26.5505 43.2902 25.7168 42.5048 25.7168H27.8398C27.4546 25.7168 27.1036 25.4956 26.9375 25.148L26.5097 24.2525C26.3436 23.9049 25.9926 23.6836 25.6074 23.6836H23.8584C23.3061 23.6836 22.8584 24.1313 22.8584 24.6836V24.7168C22.8584 25.2691 23.3061 25.7168 23.8584 25.7168H24.2973C24.6813 25.7168 25.0313 25.9367 25.1981 26.2825L28.4193 32.9632C28.5613 33.2576 28.5504 33.6028 28.3901 33.8877L27.2507 35.9136C26.4962 37.2759 27.4884 38.933 29.0592 38.933H40.4609C41.0132 38.933 41.4609 38.4853 41.4609 37.933V37.8998C41.4609 37.3475 41.0132 36.8998 40.4609 36.8998H30.7641C30.0004 36.8998 29.5185 36.0783 29.8912 35.4117L29.9098 35.3785C30.0866 35.0624 30.4205 34.8665 30.7826 34.8665H37.8955ZM28.8822 29.1842C28.5622 28.5202 29.046 27.7501 29.783 27.7501H39.04C39.8044 27.7501 40.2862 28.5729 39.9121 29.2395L38.182 32.3226C38.005 32.638 37.6716 32.8332 37.3099 32.8332H31.2686C30.8846 32.8332 30.5345 32.6133 30.3678 32.2673L28.8822 29.1842ZM29.0592 39.9496C27.9224 39.9496 27.0026 40.8646 27.0026 41.9829C27.0026 43.1012 27.9224 44.0162 29.0592 44.0162C30.1961 44.0162 31.1262 43.1012 31.1262 41.9829C31.1262 40.8646 30.1961 39.9496 29.0592 39.9496ZM39.394 39.9496C38.2572 39.9496 37.3374 40.8646 37.3374 41.9829C37.3374 43.1012 38.2572 44.0162 39.394 44.0162C40.5308 44.0162 41.4609 43.1012 41.4609 41.9829C41.4609 40.8646 40.5308 39.9496 39.394 39.9496Z" fill="#24CE7B"/>
</svg>