<svg xmlns="http://www.w3.org/2000/svg" width="11" height="14" viewBox="0 0 11 14" fill="none">
  <path d="M9.625 4.66667H8.9375V3.33333C8.9375 1.49333 7.3975 0 5.5 0C3.6025 0 2.0625 1.49333 2.0625 3.33333V4.66667H1.375C0.61875 4.66667 0 5.26667 0 6V12.6667C0 13.4 0.61875 14 1.375 14H9.625C10.3813 14 11 13.4 11 12.6667V6C11 5.26667 10.3813 4.66667 9.625 4.66667ZM3.4375 3.33333C3.4375 2.22667 4.35875 1.33333 5.5 1.33333C6.64125 1.33333 7.5625 2.22667 7.5625 3.33333V4.66667H3.4375V3.33333ZM9.625 12.6667H1.375V6H9.625V12.6667ZM5.5 10.6667C6.25625 10.6667 6.875 10.0667 6.875 9.33333C6.875 8.6 6.25625 8 5.5 8C4.74375 8 4.125 8.6 4.125 9.33333C4.125 10.0667 4.74375 10.6667 5.5 10.6667Z" fill="#ACCEC9"/>
</svg>