<svg xmlns="http://www.w3.org/2000/svg" width="20" height="13" viewBox="0 0 20 13" fill="#CFF4D1">
<path d="M0 7.3C0 7.57614 0.223858 7.8 0.5 7.8H1.72222C1.99836 7.8 2.22222 7.57614 2.22222 7.3V5.7C2.22222 5.42386 1.99836 5.2 1.72222 5.2H0.5C0.223858 5.2 0 5.42386 0 5.7V7.3ZM0 12.5C0 12.7761 0.223858 13 0.5 13H1.72222C1.99836 13 2.22222 12.7761 2.22222 12.5V10.9C2.22222 10.6239 1.99836 10.4 1.72222 10.4H0.5C0.223858 10.4 0 10.6239 0 10.9V12.5ZM0 2.1C0 2.37614 0.223858 2.6 0.5 2.6H1.72222C1.99836 2.6 2.22222 2.37614 2.22222 2.1V0.5C2.22222 0.223858 1.99836 0 1.72222 0H0.5C0.223858 0 0 0.223858 0 0.5V2.1ZM4.44444 7.3C4.44444 7.57614 4.6683 7.8 4.94444 7.8H19.5C19.7761 7.8 20 7.57614 20 7.3V5.7C20 5.42386 19.7761 5.2 19.5 5.2H4.94445C4.6683 5.2 4.44444 5.42386 4.44444 5.7V7.3ZM4.44444 12.5C4.44444 12.7761 4.6683 13 4.94444 13H19.5C19.7761 13 20 12.7761 20 12.5V10.9C20 10.6239 19.7761 10.4 19.5 10.4H4.94445C4.6683 10.4 4.44444 10.6239 4.44444 10.9V12.5ZM4.94445 0C4.6683 0 4.44444 0.223858 4.44444 0.5V2.1C4.44444 2.37614 4.6683 2.6 4.94444 2.6H19.5C19.7761 2.6 20 2.37614 20 2.1V0.5C20 0.223858 19.7761 0 19.5 0H4.94445Z"/>
</svg>