<svg xmlns="http://www.w3.org/2000/svg" width="15" height="15" viewBox="0 0 15 15" fill="none">
  <path d="M15 8.07143C15 8.34757 14.7761 8.57143 14.5 8.57143H9.07143C8.79529 8.57143 8.57143 8.79529 8.57143 9.07143V14.5C8.57143 14.7761 8.34757 15 8.07143 15H6.92857C6.65243 15 6.42857 14.7761 6.42857 14.5V9.07143C6.42857 8.79529 6.20471 8.57143 5.92857 8.57143H0.5C0.223857 8.57143 0 8.34757 0 8.07143V6.92857C0 6.65243 0.223858 6.42857 0.5 6.42857H5.92857C6.20471 6.42857 6.42857 6.20471 6.42857 5.92857V0.5C6.42857 0.223857 6.65243 0 6.92857 0H8.07143C8.34757 0 8.57143 0.223858 8.57143 0.5V5.92857C8.57143 6.20471 8.79529 6.42857 9.07143 6.42857H14.5C14.7761 6.42857 15 6.65243 15 6.92857V8.07143Z" fill="white"/>
</svg>