<svg xmlns="http://www.w3.org/2000/svg" width="18" height="20" viewBox="0 0 18 20" fill="none">
  <path d="M15.4286 3.5C15.4286 2.94772 14.9809 2.5 14.4286 2.5H3.57143C3.01914 2.5 2.57143 2.94772 2.57143 3.5V16.5C2.57143 17.0523 3.01914 17.5 3.57143 17.5H14.4286C14.9809 17.5 15.4286 17.0523 15.4286 16.5V3.5ZM18 17.5C18 18.875 16.8429 20 15.4286 20H2.57143C1.15714 20 0 18.875 0 17.5V2.5C0 1.125 1.15714 0 2.57143 0H15.4286C16.8429 0 18 1.125 18 2.5V17.5ZM12.8571 6C12.8571 5.44772 12.4094 5 11.8571 5H6.14286C5.59057 5 5.14286 5.44772 5.14286 6V6.5C5.14286 7.05228 5.59057 7.5 6.14286 7.5H11.8571C12.4094 7.5 12.8571 7.05228 12.8571 6.5V6ZM12.8571 9.75C12.8571 9.19772 12.4094 8.75 11.8571 8.75H6.14286C5.59057 8.75 5.14286 9.19772 5.14286 9.75V10.25C5.14286 10.8023 5.59057 11.25 6.14286 11.25H11.8571C12.4094 11.25 12.8571 10.8023 12.8571 10.25V9.75ZM12.8571 13.5C12.8571 12.9477 12.4094 12.5 11.8571 12.5H6.14286C5.59057 12.5 5.14286 12.9477 5.14286 13.5V14C5.14286 14.5523 5.59057 15 6.14286 15H11.8571C12.4094 15 12.8571 14.5523 12.8571 14V13.5Z" fill="#215273"/>
</svg>