<svg xmlns="http://www.w3.org/2000/svg" width="21" height="21" viewBox="0 0 21 21" fill="none">
<path fill-rule="evenodd" clip-rule="evenodd" d="M14.1201 12.331L21 19.211L19.211 21L12.331 14.1201C11.0463 15.0446 9.49743 15.6089 7.80446 15.6089C3.494 15.6089 0 12.1149 0 7.80446C0 3.494 3.494 0 7.80446 0C12.1149 0 15.6089 3.494 15.6089 7.80446C15.6089 9.49743 15.0446 11.0463 14.1201 12.331ZM7.80446 2.40137C4.81475 2.40137 2.40137 4.81475 2.40137 7.80446C2.40137 10.7942 4.81475 13.2075 7.80446 13.2075C10.7942 13.2075 13.2075 10.7942 13.2075 7.80446C13.2075 4.81475 10.7942 2.40137 7.80446 2.40137Z" fill="#92909C"/>
</svg>