<svg xmlns="http://www.w3.org/2000/svg" width="16" height="17" viewBox="0 0 16 17" fill="#215273">
<path d="M9.50094 17H6.49956C6.31151 17 6.12909 16.9338 5.98257 16.8123C5.83605 16.6908 5.73422 16.5213 5.69397 16.3319L5.35838 14.7305C4.9107 14.5283 4.4862 14.2754 4.09269 13.9766L2.57799 14.4738C2.3987 14.5327 2.20525 14.5267 2.02976 14.4566C1.85427 14.3866 1.7073 14.2568 1.61326 14.0888L0.109271 11.4104C0.016216 11.2422 -0.0187144 11.0465 0.0101943 10.8551C0.0391031 10.6638 0.130139 10.4883 0.26841 10.3573L1.4434 9.25225C1.38997 8.75169 1.38997 8.24661 1.4434 7.74605L0.26841 6.6436C0.129944 6.51251 0.0387834 6.33681 0.00986994 6.14532C-0.0190435 5.95382 0.0160049 5.75787 0.109271 5.5896L1.60996 2.90955C1.704 2.74152 1.85097 2.6117 2.02646 2.54166C2.20195 2.47162 2.3954 2.46556 2.57469 2.5245L4.08939 3.02175C4.29058 2.86875 4.50002 2.72595 4.71605 2.59675C4.92467 2.47605 5.13905 2.3664 5.35838 2.26865L5.6948 0.66895C5.73485 0.479568 5.83648 0.309985 5.98285 0.188316C6.12922 0.0666484 6.31154 0.000203971 6.49956 0H9.50094C9.68897 0.000203971 9.87128 0.0666484 10.0177 0.188316C10.164 0.309985 10.2657 0.479568 10.3057 0.66895L10.6454 2.2695C11.0925 2.47288 11.5169 2.72567 11.9111 3.02345L13.4266 2.5262C13.6058 2.46748 13.7991 2.47364 13.9744 2.54368C14.1497 2.61371 14.2965 2.7434 14.3905 2.91125L15.8912 5.5913C16.0825 5.93725 16.0166 6.375 15.7321 6.64445L14.5571 7.74945C14.6105 8.25001 14.6105 8.75509 14.5571 9.25565L15.7321 10.3607C16.0166 10.6309 16.0825 11.0679 15.8912 11.4138L14.3905 14.0939C14.2965 14.2619 14.1495 14.3917 13.974 14.4617C13.7986 14.5318 13.6051 14.5378 13.4258 14.4789L11.9111 13.9817C11.5179 14.2803 11.0937 14.5329 10.6462 14.7347L10.3057 16.3319C10.2655 16.5211 10.1638 16.6905 10.0174 16.812C9.87108 16.9335 9.68885 16.9998 9.50094 17ZM7.99695 5.1C7.12221 5.1 6.2833 5.45821 5.66476 6.09584C5.04623 6.73346 4.69874 7.59826 4.69874 8.5C4.69874 9.40174 5.04623 10.2665 5.66476 10.9042C6.2833 11.5418 7.12221 11.9 7.99695 11.9C8.8717 11.9 9.71061 11.5418 10.3291 10.9042C10.9477 10.2665 11.2952 9.40174 11.2952 8.5C11.2952 7.59826 10.9477 6.73346 10.3291 6.09584C9.71061 5.45821 8.8717 5.1 7.99695 5.1Z" fill="#215273"/>
</svg>