<svg xmlns="http://www.w3.org/2000/svg" width="18" height="18" viewBox="0 0 18 18" fill="none">
  <path d="M14.3536 5.35355C14.1583 5.15829 13.8417 5.15829 13.6464 5.35355L12.9424 6.05756C12.7476 6.25239 12.7471 6.56811 12.9413 6.76355L13.3229 7.14756C13.6364 7.463 13.413 8 12.9683 8H6.5C6.22386 8 6 8.22386 6 8.5V9.5C6 9.77614 6.22386 10 6.5 10H12.9629C13.4083 10 13.6314 10.5386 13.3164 10.8536L12.9423 11.2277C12.7475 11.4225 12.747 11.7381 12.9411 11.9335L13.6465 12.6439C13.8415 12.8404 14.1591 12.8409 14.3548 12.6452L17.6464 9.35355C17.8417 9.15829 17.8417 8.84171 17.6464 8.64645L14.3536 5.35355ZM2 2.5C2 2.22386 2.22386 2 2.5 2H8.5C8.77614 2 9 1.77614 9 1.5V0.5C9 0.223858 8.77614 0 8.5 0H2C0.9 0 0 0.9 0 2V16C0 17.1 0.9 18 2 18H8.5C8.77614 18 9 17.7761 9 17.5V16.5C9 16.2239 8.77614 16 8.5 16H2.5C2.22386 16 2 15.7761 2 15.5V2.5Z" fill="#CFF4D1"/>
</svg>