<svg xmlns="http://www.w3.org/2000/svg" width="167" height="145" viewBox="0 0 167 145" fill="none">
  <path fill-rule="evenodd" clip-rule="evenodd" d="M167 0.5C167 17.897 152.897 32 135.5 32C135.333 32 135.166 31.9987 135 31.9961V32H127H88H40C17.9086 32 0 49.9086 0 72C0 94.0914 17.9086 112 40 112H88H127H135V112.004C135.166 112.001 135.333 112 135.5 112C152.897 112 167 126.103 167 143.5C167 144.003 166.988 144.503 166.965 145H167V143.5V112V75V72V32V0.5ZM167 0.5C167 0.333027 166.999 0.166357 166.996 0H167V0.5Z" fill="#F8F9FD"/>
</svg>