<svg xmlns="http://www.w3.org/2000/svg" width="20" height="20" viewBox="0 0 20 20" fill="none">
<path d="M10 2.5C11.375 2.5 12.5 3.625 12.5 5C12.5 6.375 11.375 7.5 10 7.5C8.625 7.5 7.5 6.375 7.5 5C7.5 3.625 8.625 2.5 10 2.5ZM10 15C12.4324 15 15.1245 15.8376 16.5321 16.6376C17.1083 16.9652 16.8422 17.5 16.1794 17.5H3.86923C3.19194 17.5 2.92383 16.9473 3.51468 16.6162C4.93559 15.8201 7.59273 15 10 15ZM10 0C7.2375 0 5 2.2375 5 5C5 7.7625 7.2375 10 10 10C12.7625 10 15 7.7625 15 5C15 2.2375 12.7625 0 10 0ZM10 12.5C6.6625 12.5 0 14.175 0 17.5V19C0 19.5523 0.447715 20 1 20H19C19.5523 20 20 19.5523 20 19V17.5C20 14.175 13.3375 12.5 10 12.5Z" fill="#215273"/>
</svg>