<svg xmlns="http://www.w3.org/2000/svg" width="15" height="15" viewBox="0 0 15 15" fill="none">
<path d="M7.37493 0.161133C3.41999 0.161133 0.223145 3.35798 0.223145 7.31292C0.223145 11.2679 3.41999 14.4647 7.37493 14.4647C11.3299 14.4647 14.5267 11.2679 14.5267 7.31292C14.5267 3.35798 11.3299 0.161133 7.37493 0.161133ZM7.37493 13.0343C4.22099 13.0343 1.6535 10.4669 1.6535 7.31292C1.6535 4.15898 4.22099 1.59149 7.37493 1.59149C10.5289 1.59149 13.0964 4.15898 13.0964 7.31292C13.0964 10.4669 10.5289 13.0343 7.37493 13.0343ZM9.94242 3.73703L7.37493 6.30452L4.80744 3.73703L3.79904 4.74543L6.36653 7.31292L3.79904 9.88041L4.80744 10.8888L7.37493 8.32132L9.94242 10.8888L10.9508 9.88041L8.38333 7.31292L10.9508 4.74543L9.94242 3.73703Z" fill="#215273"/>
</svg>